<svg xmlns="http://www.w3.org/2000/svg" viewBox="0 0 240 64" width="240" height="64">
  <g transform="translate(8,6)">
    <path d="M26 30c-8 0-14-6-14-13 0-5 4-9 9-10 2-4 6-6 10-5 5 1 8 5 8 10 3 2 4 5 3 8-1 6-8 10-16 10z" fill="#d6336c"/>
    <path d="M20 16c3-3 8-3 11 0M18 22c4 3 10 3 14 0" stroke="#a61e4d" stroke-width="2" fill="none"/>
    <path d="M26 30v24" stroke="#2b8a3e" stroke-width="3"/>
    <path d="M26 42c-6-2-10-6-10-10 5 0 9 4 10 10zM26 46c6-2 10-6 10-10-5 0-9 4-10 10z" fill="#2b8a3e"/>
  </g>
  <text x="60" y="42" font-family="'Great Vibes', cursive" font-size="30" fill="#d6336c">Stem &amp; Wren</text>
</svg>
