{"asset":{"version":"2.0","generator":"hand-written regress fixture"},"scene":0,"scenes":[{"nodes":[0,1,2,3,4]}],"nodes":[{"mesh":0,"translation":[0,0,0]},{"mesh":0,"translation":[1.5,0,0]},{"mesh":0,"translation":[3,0,0]},{"mesh":0,"translation":[4.5,0,0]},{"mesh":0,"translation":[6,0,0]}],"meshes":[{"primitives":[{"attributes":{"POSITION":0},"indices":1,"material":0}]}],"materials":[{"name":"glass-ish","alphaMode":"BLEND","doubleSided":true,"pbrMetallicRoughness":{"baseColorFactor":[1,1,1,0.5]}},{"name":"unused"}],"accessors":[{"bufferView":0,"componentType":5126,"count":4,"type":"VEC3","min":[0,0,0],"max":[1,1,0]},{"bufferView":1,"componentType":5123,"count":6,"type":"SCALAR"}],"bufferViews":[{"buffer":0,"byteOffset":0,"byteLength":48},{"buffer":0,"byteOffset":48,"byteLength":12}],"buffers":[{"byteLength":60,"uri":"data:application/octet-stream;base64,"}]}
